<svg width="144" height="65" viewBox="0 0 144 65" fill="none" xmlns="http://www.w3.org/2000/svg">
<g clip-path="url(#clip0_421_4033)">
<mask id="mask0_421_4033" style="mask-type:alpha" maskUnits="userSpaceOnUse" x="0" y="0" width="144" height="65">
<path d="M144 0H0V65H144V0Z" fill="#C4C4C4"/>
</mask>
<g mask="url(#mask0_421_4033)">
<path fill-rule="evenodd" clip-rule="evenodd" d="M141.49 23.8345C141.6 24.1103 141.766 24.1931 142.069 24.0828C142 23.9586 141.938 23.8276 141.876 23.6966C141.814 23.5655 141.752 23.4345 141.683 23.3103C141.572 23.1448 141.517 23.0345 141.738 22.8966C142.014 22.7034 142.069 22.4 141.959 22.0966C141.876 21.7931 141.628 21.6276 141.324 21.6276H140.524C140.359 21.6276 140.303 21.6828 140.303 21.8483V23.9172C140.303 24.0828 140.359 24.1103 140.497 24.1103C140.662 24.1103 140.662 24.0276 140.662 23.9172C140.662 23.8621 140.659 23.8069 140.656 23.7517C140.65 23.6414 140.644 23.531 140.662 23.4207C140.662 23.3932 140.654 23.3605 140.644 23.3262C140.617 23.2226 140.586 23.1035 140.772 23.0621C140.993 23.0069 141.186 23.0621 141.269 23.3103C141.3 23.4173 141.347 23.5158 141.393 23.6105C141.429 23.6868 141.465 23.7606 141.49 23.8345ZM141.214 22.731H141.021C140.985 22.722 140.94 22.7278 140.893 22.7338C140.796 22.7461 140.69 22.7596 140.635 22.6483C140.579 22.4552 140.607 22.2345 140.635 22.0414C140.657 21.9738 140.735 21.9798 140.793 21.9843C140.806 21.9853 140.817 21.9862 140.828 21.9862H141.214C141.435 21.9862 141.628 22.0414 141.628 22.3172C141.628 22.5931 141.49 22.731 141.214 22.731Z" fill="#EE2024"/>
<path fill-rule="evenodd" clip-rule="evenodd" d="M0.165527 41.931V45.6C0.303458 45.6 0.441389 45.6 0.606907 45.5448C6.26208 45.5586 11.9104 45.5655 17.5586 45.5724C23.2069 45.5793 28.8552 45.5862 34.5104 45.6C38.4276 45.6276 42.3724 45.6276 46.2897 45.6276C54.7724 45.6414 63.2552 45.6483 71.7379 45.6552C80.2207 45.6621 88.7035 45.669 97.1862 45.6828C102.621 45.7103 108.055 45.7103 113.49 45.7103H135.035C136.331 45.7103 137.6 45.4897 138.814 44.9931C140.497 44.3034 141.876 43.2828 142.345 41.4345C142.566 40.6621 142.731 39.8621 142.731 39.0621C142.786 34.7034 142.786 30.3172 142.786 25.9586C142.786 25.9034 142.779 25.8483 142.772 25.7931C142.766 25.7379 142.759 25.6828 142.759 25.6276H137.159V27.3379C137.131 27.3379 137.076 27.3655 137.048 27.3931C137.011 27.3471 136.975 27.298 136.938 27.249C136.864 27.1509 136.791 27.0529 136.717 26.9793C135.89 26.1793 134.897 25.6276 133.766 25.3793C132.745 25.1586 131.752 25.1862 130.731 25.3241C128.331 25.6552 126.566 26.869 125.545 29.1034C125.159 29.9586 124.993 30.8966 124.966 31.8345C124.883 34.0966 125.628 35.9724 127.476 37.3517C128.634 38.2345 129.986 38.6483 131.448 38.7034C133.297 38.8138 135.035 38.5103 136.524 37.3241C136.552 37.2966 136.579 37.2966 136.717 37.2966C136.69 37.6013 136.666 37.906 136.643 38.2097C136.593 38.841 136.543 39.4682 136.469 40.0828C136.386 40.8 135.972 41.3241 135.255 41.5172C134.814 41.6552 134.345 41.7379 133.876 41.7655C132.69 41.7931 131.476 41.7931 130.262 41.7931C123.779 41.8207 117.324 41.8207 110.841 41.8207C92.3586 41.8483 73.8759 41.8483 55.3931 41.8483C48.7035 41.8483 42.0207 41.8552 35.3379 41.8621C28.6552 41.869 21.9724 41.8759 15.2828 41.8759C12.8276 41.8759 10.3793 41.8828 7.93104 41.8897C5.48277 41.8966 3.03449 41.9034 0.57932 41.9034C0.510355 41.9034 0.441389 41.9103 0.372424 41.9172C0.303458 41.9241 0.234493 41.931 0.165527 41.931ZM131.614 30.5103C132 29.5724 132.772 29.1034 133.931 29.131C135.586 29.1586 136.497 29.9862 136.579 31.6138C136.634 32.2207 136.524 32.8828 136.386 33.4897C136.221 34.2069 135.697 34.6483 135.007 34.8414C134.345 35.0345 133.683 35.0345 133.048 34.8414C131.972 34.5103 131.448 33.6828 131.338 32.6069C131.255 31.8897 131.338 31.1724 131.614 30.5103Z" fill="#EE2024"/>
<path fill-rule="evenodd" clip-rule="evenodd" d="M0.165527 39.1448V20.2207C0.238336 20.2207 0.303458 20.213 0.364951 20.2057C0.419953 20.1993 0.47205 20.1931 0.524148 20.1931C3.86208 20.1931 7.20001 20.1931 10.5655 20.2207C12.1931 20.2207 13.7931 20.4414 15.3104 21.1034C16.6897 21.7103 17.6552 22.7034 17.8759 24.2483C18.1241 26.0414 17.4897 27.4759 16.0552 28.5793H16.0551C15.8345 28.7449 15.6138 28.9104 15.3379 29.1034C15.4483 29.1586 15.531 29.1862 15.6138 29.2138C17.6276 29.8759 18.8966 31.8069 18.6483 33.931C18.3724 36.469 17.0759 37.931 14.4276 38.6759C13.269 39.0069 12.0552 39.1724 10.8414 39.1724C9.10346 39.1862 7.35863 39.1862 5.6138 39.1862C3.86898 39.1862 2.12415 39.1862 0.386217 39.2C0.331045 39.1448 0.275872 39.1448 0.165527 39.1448ZM7.85773 34.7649H7.85792H7.858C8.58732 34.7709 9.30056 34.7769 10.0138 34.7586C10.4552 34.7586 10.869 34.6759 11.2828 34.5379C12.1379 34.2897 12.5517 33.7103 12.5241 32.9379C12.4966 32.1103 12.0552 31.531 11.1448 31.4207C10.1399 31.3222 9.13498 31.294 8.13005 31.2659C7.72808 31.2546 7.32611 31.2434 6.92415 31.2276C6.86898 31.2276 6.73104 31.4207 6.73104 31.5034C6.71265 31.8345 6.71878 32.1655 6.72491 32.4966C6.72798 32.6621 6.73104 32.8276 6.73104 32.9931V34.7586C7.11217 34.7586 7.48702 34.7618 7.85773 34.7649ZM6.73104 27.5586V24.5793H8.85518C9.40691 24.5793 9.95863 24.6069 10.5104 24.6621C11.2828 24.7172 11.669 25.1034 11.7793 25.8207C11.8897 26.5379 11.6138 27.2276 10.9793 27.4759C10.5655 27.6414 10.1241 27.7241 9.68277 27.7517C9.01984 27.7932 8.34136 27.7879 7.67069 27.7827C7.44828 27.781 7.22674 27.7793 7.00691 27.7793C6.86898 27.7793 6.73104 27.7793 6.73104 27.5586Z" fill="#EE2024"/>
<path d="M47.1448 26.0138C48.9931 26.0138 50.8413 26.0138 52.6896 26.0138C52.6896 26.5931 52.6896 27.2 52.6896 27.8345C52.8 27.7517 52.8551 27.7241 52.8827 27.669C54.4275 26.069 56.3034 25.4345 58.4827 25.6552C59.1724 25.7379 59.862 25.9034 60.5241 26.1241C61.3517 26.4 62.0138 26.9517 62.4827 27.6966C62.5379 27.7517 62.5931 27.8345 62.6758 27.9448C62.8689 27.7241 63.062 27.5034 63.2551 27.3103C64.8551 25.8759 66.7586 25.4621 68.8276 25.6276C69.6 25.7103 70.4 25.8483 71.1448 26.1241C72.7724 26.731 73.5172 28.0552 73.7655 29.6828C73.8207 30.0966 73.8482 30.5103 73.8482 30.8966C73.8482 33.3517 73.8482 35.8345 73.8482 38.2897C73.8482 38.3724 73.8207 38.4552 73.8207 38.5655C71.8069 38.5655 69.8207 38.5655 67.7517 38.5655C67.7517 38.4276 67.7517 38.2897 67.7517 38.1517C67.7517 36.1931 67.7517 34.2069 67.7517 32.2483C67.7517 31.7517 67.6965 31.2276 67.6138 30.731C67.5034 30.1241 67.0896 29.7379 66.5103 29.6C64.8551 29.2138 63.6413 29.8207 63.5586 31.7241C63.4758 33.7931 63.5034 35.8621 63.5034 37.9034C63.5034 38.0966 63.5034 38.3172 63.5034 38.5379C61.462 38.5379 59.4758 38.5379 57.4069 38.5379C57.4069 38.4 57.4069 38.2621 57.4069 38.1241C57.4069 36 57.4069 33.8759 57.4069 31.7517C57.4069 31.3931 57.3517 31.0621 57.2689 30.7034C57.131 30.0966 56.7448 29.7103 56.1379 29.5724C54.3724 29.1862 53.2413 29.9586 53.1862 31.8621C53.131 33.8759 53.1586 35.8621 53.1586 37.8759C53.1586 38.069 53.1586 38.2897 53.1586 38.5103C53.0482 38.5103 52.9379 38.5379 52.8275 38.5379C51.0344 38.5379 49.2413 38.5379 47.4207 38.5379C47.1448 38.5379 47.0344 38.4552 47.0344 38.1793C47.0344 34.2069 47.0344 30.2069 47.0344 26.2345C47.1172 26.2345 47.1448 26.1241 47.1448 26.0138Z" fill="#EE2024"/>
<path fill-rule="evenodd" clip-rule="evenodd" d="M82.2345 27.0345V20.8828C80.0276 20.8828 77.9034 20.8828 75.7517 20.9103V38.8138H81.6V37.0207C81.6552 37.0207 81.6827 37.0207 81.7103 37.0483C81.7241 37.0621 81.7379 37.0828 81.7517 37.1034C81.7655 37.1241 81.7793 37.1448 81.7931 37.1586C82.4276 38.0414 83.2827 38.5931 84.3034 38.869C86.3172 39.3931 88.331 39.3379 90.2896 38.5931C92.1931 37.9034 93.3793 36.5241 93.9034 34.5931C94.1517 33.6828 94.2345 32.7724 94.1793 31.8345C94.0138 29.1034 92.6896 27.1724 90.2345 26.0138C88.9103 25.3793 87.4758 25.2966 86.0414 25.4345C84.6896 25.5724 83.4483 26.0414 82.4 26.9517C82.3724 26.9793 82.3448 27.0069 82.2345 27.0345ZM87.5862 31.5862C87.6414 31.8621 87.669 32.1379 87.6965 32.4414C87.6745 32.5738 87.6612 32.7062 87.648 32.8386C87.6281 33.0372 87.6083 33.2359 87.5586 33.4345C87.3379 34.5379 86.6758 35.2276 85.6552 35.3931C84.4414 35.6138 83.3655 35.4207 82.6207 34.3172C81.8483 33.131 81.8758 31.3379 82.731 30.3172C83.531 29.3793 84.6069 29.2138 85.7379 29.4897C86.8138 29.7655 87.3655 30.5379 87.5862 31.5862Z" fill="#EE2024"/>
<path fill-rule="evenodd" clip-rule="evenodd" d="M30.8137 38.2069C32.6068 39.1172 34.5378 39.3931 36.524 39.3931C38.3999 39.3931 39.8896 39.1448 41.2413 38.6483C44.6344 37.3793 46.3447 34.6207 45.8758 31.0621C45.5999 28.8828 44.3861 27.3379 42.5102 26.2897C41.1309 25.5172 39.6689 25.1586 38.124 25.0207C36.1378 24.8552 34.1516 24.9103 32.2206 25.5448C28.2482 26.8414 26.5378 30.0414 27.3102 33.931C27.724 35.9448 29.0206 37.2966 30.8137 38.2069ZM38.8413 29.7655C39.2827 30.5103 39.4482 31.2828 39.4758 32.1379C39.4551 32.269 39.4361 32.4017 39.4171 32.5345C39.3602 32.9328 39.3033 33.331 39.1999 33.6828C38.7861 35.3379 37.5447 35.8897 36.0827 35.7241C34.9792 35.5862 34.262 34.9793 33.9309 33.9034C33.5999 32.8 33.5447 31.6966 33.8758 30.5655C34.4827 28.5517 36.3585 28.2759 37.5999 28.6897C38.1516 28.8828 38.5378 29.269 38.8413 29.7655Z" fill="#EE2024"/>
<path fill-rule="evenodd" clip-rule="evenodd" d="M101.269 32.9931H112.938C112.932 32.8903 112.927 32.7921 112.922 32.6958C112.906 32.3788 112.891 32.0839 112.828 31.7241C112.607 29.2966 111.448 27.4207 109.407 26.0966C108.083 25.2138 106.621 24.8552 105.048 24.7172C103.228 24.5793 101.462 24.7172 99.7518 25.4069C96.1932 26.8138 94.4553 30.0966 95.3932 33.7103C95.9173 35.7241 97.2691 36.9931 99.0622 37.8483C100.221 38.4 101.462 38.6759 102.759 38.7586C104.938 38.9241 107.062 38.731 109.076 37.8483C110.483 37.2414 111.586 36.3034 112.221 34.869C112.252 34.8063 112.274 34.7348 112.298 34.6594C112.316 34.602 112.335 34.5424 112.359 34.4828C112.326 34.4828 112.303 34.4733 112.285 34.4655C112.271 34.4599 112.26 34.4552 112.248 34.4552H106.786C106.707 34.4552 106.629 34.5255 106.55 34.5959C106.518 34.6241 106.487 34.6522 106.455 34.6759C106.38 34.7435 106.307 34.8152 106.234 34.8866C106.04 35.0772 105.848 35.2652 105.628 35.3655C104.386 35.8897 103.2 35.7793 102.124 34.9241C101.545 34.4552 101.269 33.7931 101.269 32.9931ZM106.317 28.9655C106.676 29.3793 106.841 29.8207 106.814 30.3172H101.241C101.241 29.5448 101.462 28.9103 102.069 28.469C103.283 27.6138 105.352 27.8345 106.317 28.9655Z" fill="#EE2024"/>
<path d="M25.9034 20.5241C25.9034 26.5379 25.9034 32.5517 25.9034 38.5931C25.7931 38.5931 25.6828 38.6207 25.5724 38.6207C23.8345 38.6207 22.0966 38.6207 20.3586 38.6207C20.0828 38.6207 20 38.5379 20 38.2621C20 32.4414 20 26.5931 20 20.7724C20 20.6897 20 20.6069 20.0276 20.4966C21.9862 20.5241 23.9448 20.5241 25.9034 20.5241Z" fill="#EE2024"/>
<path d="M119.366 26.0138C119.366 26.8414 119.366 27.6414 119.366 28.469C119.393 28.4966 119.421 28.5241 119.448 28.5517C120.469 26.2345 122.29 25.4621 124.662 25.7103C124.662 27.3655 124.662 28.9931 124.662 30.5931C123.945 30.5931 123.255 30.5379 122.593 30.5931C120.938 30.7862 120 31.8069 119.945 33.4897C119.89 35.0069 119.89 36.5517 119.89 38.0966C119.89 38.4276 119.807 38.5655 119.448 38.5655C117.793 38.5379 116.11 38.5655 114.455 38.5655C114.207 38.5655 114.097 38.5379 114.097 38.2345C114.097 34.2621 114.097 30.2621 114.097 26.2897C114.097 26.2069 114.097 26.1517 114.124 26.0414C115.89 26.0138 117.6 26.0138 119.366 26.0138Z" fill="#EE2024"/>
<path fill-rule="evenodd" clip-rule="evenodd" d="M141.076 25.1034C142.29 25.1034 143.283 24.1103 143.283 22.8966C143.283 21.6552 142.29 20.6897 141.076 20.7172C139.862 20.7172 138.897 21.7103 138.897 22.9241C138.897 24.1103 139.862 25.1034 141.076 25.1034ZM141.104 20.9655C142.179 20.9655 143.035 21.8207 143.035 22.9241C143.035 24 142.152 24.8552 141.076 24.8276C140 24.8276 139.145 23.9724 139.145 22.8966C139.145 21.8207 140 20.9655 141.104 20.9655Z" fill="#EE2024"/>
</g>
</g>
<defs>
<clipPath id="clip0_421_4033">
<rect width="144" height="65" fill="white"/>
</clipPath>
</defs>
</svg>
