<svg width="71" height="65" viewBox="0 0 71 65" fill="none" xmlns="http://www.w3.org/2000/svg">
<path d="M42.0046 18H37.7046V36.8H51.0046V33.2H42.0046V18Z" fill="#706F6F"/>
<path d="M60.6045 29.7H64.1045V33C63.1001 33.3127 62.0563 33.4811 61.0045 33.5C57.1045 33.5 55.8045 31.5 55.8045 27.4C55.8045 23.3 57.0045 21.3 60.9045 21.3C61.7624 21.2264 62.625 21.3711 63.4119 21.7209C64.1987 22.0706 64.8843 22.6138 65.4045 23.3L68.1045 20.8C66.4045 18.4 63.6045 17.7 60.8045 17.7C54.8045 17.7 51.6045 21 51.6045 27.4C51.6045 33.8 54.4045 37.1 60.8045 37.1C63.389 37.185 65.9477 36.5626 68.2045 35.3V26.1H60.6045V29.7Z" fill="#706F6F"/>
<path d="M16.6047 12.9001C13.7172 12.8803 10.8887 13.7173 8.47683 15.3051C6.065 16.8929 4.17816 19.1603 3.05491 21.8204C1.93167 24.4806 1.62247 27.4141 2.16641 30.25C2.71036 33.0859 4.08302 35.6968 6.11081 37.7525C8.1386 39.8083 10.7305 41.2166 13.5586 41.7993C16.3868 42.3821 19.3242 42.1131 21.9995 41.0264C24.6748 39.9397 26.9678 38.0841 28.5885 35.6942C30.2092 33.3044 31.0849 30.4876 31.1047 27.6001V27.4001C31.1047 23.5544 29.577 19.8663 26.8577 17.147C24.1385 14.4277 20.4503 12.9001 16.6047 12.9001Z" fill="url(#paint0_radial_421_4091)"/>
<path d="M6.70452 17.6001C1.80452 22.5001 1.30452 29.9001 5.60452 34.2001C9.90452 38.5001 17.3045 38.0001 22.2045 33.1001C27.1045 28.2001 27.5045 20.8001 23.3045 16.5001C21.338 14.6254 18.7214 13.5859 16.0045 13.6001C12.4984 13.6553 9.15602 15.0929 6.70452 17.6001Z" fill="url(#paint1_linear_421_4091)"/>
<path d="M15.8045 34L16.2045 33.8V21.5L17.3045 21.2L17.5045 21.5V32.6H20.2045L20.4045 32.9V34.2H16.1045L15.8045 34ZM29.0045 26.8H19.9045V28.3L20.2045 28.6H27.8045C27.6021 31.3766 26.3544 33.9731 24.313 35.866C22.2716 37.7589 19.5885 38.8074 16.8045 38.8C13.9217 38.7642 11.1637 37.618 9.10454 35.6C8.08293 34.5961 7.27329 33.3973 6.72361 32.0746C6.17393 30.7519 5.8954 29.3324 5.90454 27.9C5.88014 26.4596 6.14155 25.0285 6.67365 23.6897C7.20575 22.3509 7.99798 21.1308 9.00454 20.1C10.0455 19.0724 11.2794 18.2607 12.6351 17.7115C13.9909 17.1624 15.4418 16.8866 16.9045 16.9H17.6045V15.6L17.3045 15.2H16.4045C9.50454 15.2 4.40454 21 4.40454 27.8C4.40386 29.4156 4.72144 31.0154 5.33913 32.5081C5.95683 34.0009 6.86254 35.3574 8.00454 36.5C10.3711 38.7666 13.5277 40.0221 16.8045 40C18.4384 40.0253 20.0605 39.7193 21.573 39.1006C23.0854 38.4819 24.4568 37.5632 25.6045 36.4C26.7829 35.2796 27.7192 33.9296 28.3556 32.4332C28.992 30.9369 29.3149 29.326 29.3045 27.7V27L29.0045 26.8ZM12.1045 21.1C11.8116 21.0333 11.5075 21.0334 11.2146 21.1003C10.9218 21.1672 10.6477 21.2992 10.4129 21.4866C10.1781 21.6739 9.98844 21.9118 9.85812 22.1824C9.7278 22.4531 9.66013 22.7496 9.66013 23.05C9.66013 23.3504 9.7278 23.647 9.85812 23.9177C9.98844 24.1883 10.1781 24.4262 10.4129 24.6135C10.6477 24.8008 10.9218 24.9329 11.2146 24.9998C11.5075 25.0667 11.8116 25.0668 12.1045 25C12.6085 25 13.0917 24.7999 13.448 24.4435C13.8044 24.0872 14.0045 23.604 14.0045 23.1C14.0181 22.8422 13.979 22.5844 13.8897 22.3422C13.8003 22.1 13.6625 21.8786 13.4847 21.6914C13.3069 21.5043 13.0928 21.3553 12.8555 21.2536C12.6182 21.1519 12.3627 21.0997 12.1045 21.1Z" fill="url(#paint2_linear_421_4091)"/>
<path d="M16.1047 33.7001L15.8047 34.0001H20.2047L19.9047 33.7001H16.1047Z" fill="#6B7478"/>
<path d="M19.9046 32.9L20.2046 32.6H17.3046L17.0046 32.9H19.9046Z" fill="#97A2A9"/>
<path d="M17.3047 21H15.8047L16.1047 21.2H17.0047L17.3047 21Z" fill="#98A1A8"/>
<path d="M17.0046 32.8L17.3046 32.6V21L17.0046 21.2V32.8Z" fill="url(#paint3_linear_421_4091)"/>
<path d="M19.9045 32.9V33.7L20.2045 34V32.6L19.9045 32.9Z" fill="url(#paint4_linear_421_4091)"/>
<path d="M15.8047 21V34L16.1047 33.7V21.2L15.8047 21Z" fill="#C3C7CA"/>
<path d="M10.0046 22.8001C10.0046 23.304 10.2048 23.7873 10.5611 24.1436C10.9175 24.4999 11.4007 24.7001 11.9046 24.7001C12.1579 24.7146 12.4115 24.6754 12.6486 24.585C12.8857 24.4947 13.101 24.3552 13.2804 24.1758C13.4598 23.9964 13.5992 23.7811 13.6896 23.544C13.7799 23.3069 13.8192 23.0534 13.8046 22.8001C13.8046 22.2962 13.6045 21.8129 13.2481 21.4566C12.8918 21.1003 12.4086 20.9001 11.9046 20.9001C11.4086 20.9243 10.9392 21.1323 10.588 21.4835C10.2368 21.8347 10.0289 22.304 10.0046 22.8001ZM13.5046 22.8001C13.5054 23.2341 13.3401 23.6521 13.0426 23.9681C12.7451 24.2842 12.338 24.4746 11.9046 24.5001C11.4713 24.4746 11.0642 24.2842 10.7667 23.9681C10.4692 23.6521 10.3039 23.2341 10.3046 22.8001C10.3046 22.3757 10.4732 21.9688 10.7733 21.6687C11.0733 21.3687 11.4803 21.2001 11.9046 21.2001C12.329 21.2001 12.736 21.3687 13.036 21.6687C13.3361 21.9688 13.5046 22.3757 13.5046 22.8001Z" fill="url(#paint5_linear_421_4091)"/>
<path d="M27.7045 27.8999H20.2045L19.9045 28.1999H27.4045L27.6045 28.0999L27.7045 27.8999Z" fill="#565D5F"/>
<path d="M20.2045 27.1001H28.6045L28.9045 26.8001H19.9045L20.2045 27.1001Z" fill="#9EA5AA"/>
<path d="M28.9045 27.4999V26.7999L28.6045 27.0999V27.4999C28.6139 29.0781 28.3093 30.6423 27.7084 32.1015C27.1075 33.5608 26.2224 34.886 25.1045 35.9999C23.9879 37.1338 22.657 38.0342 21.1891 38.6488C19.7213 39.2634 18.1458 39.5799 16.5545 39.5799C14.9632 39.5799 13.3877 39.2634 11.9199 38.6488C10.452 38.0342 9.12108 37.1338 8.00449 35.9999C6.88662 34.886 6.00149 33.5608 5.40061 32.1015C4.79974 30.6423 4.49512 29.0781 4.50449 27.4999C4.50438 24.3081 5.76546 21.2455 8.01307 18.9791C10.2607 16.7128 13.3127 15.4263 16.5045 15.3999H17.0045L17.3045 15.0999H16.5045C13.2158 15.0999 10.0618 16.4064 7.73637 18.7318C5.41092 21.0573 4.10449 24.2113 4.10449 27.4999C4.10449 30.7886 5.41092 33.9426 7.73637 36.2681C10.0618 38.5935 13.2158 39.9 16.5045 39.9C18.1464 39.9181 19.7746 39.5991 21.2883 38.9627C22.8019 38.3262 24.1689 37.3859 25.3045 36.1999C26.4465 35.0573 27.3522 33.7008 27.9699 32.208C28.5876 30.7153 28.9052 29.1155 28.9045 27.4999Z" fill="url(#paint6_linear_421_4091)"/>
<path d="M17.0045 16.3001H16.4045C13.4794 16.3678 10.69 17.5479 8.60448 19.6001C7.05174 21.1602 5.99312 23.1433 5.56086 25.3015C5.12861 27.4598 5.34189 29.6976 6.17406 31.7353C7.00623 33.7731 8.42039 35.5204 10.2399 36.7591C12.0594 37.9978 14.2035 38.6729 16.4045 38.7001H16.7045C19.5067 38.6572 22.1911 37.5653 24.2275 35.6399C26.264 33.7145 27.5046 31.0955 27.7045 28.3001V28.1001H27.5045C27.3509 30.8857 26.1351 33.5064 24.1073 35.4225C22.0796 37.3387 19.3943 38.4043 16.6045 38.4001C15.1562 38.417 13.7193 38.1424 12.3793 37.5927C11.0393 37.0429 9.82361 36.2293 8.80448 35.2001C6.81424 33.1309 5.70314 30.3711 5.70448 27.5001C5.69113 26.065 5.96395 24.6416 6.507 23.3131C7.05005 21.9846 7.85243 20.7777 8.86726 19.7629C9.88209 18.7481 11.089 17.9457 12.4175 17.4026C13.746 16.8596 15.1694 16.5868 16.6045 16.6001H17.3045L17.0045 16.3001Z" fill="url(#paint7_linear_421_4091)"/>
<path d="M20.2045 27.1001L19.9045 26.8001V28.2001L20.2045 27.9001V27.1001Z" fill="#C3C7CA"/>
<path d="M17.0046 16.2999L17.3046 16.5999V15.0999L17.0046 15.3999V16.2999Z" fill="url(#paint8_linear_421_4091)"/>
<path d="M16.0045 21.0999V33.8999H20.0045V32.6999H17.1045V21.0999H16.0045ZM16.4045 15.2999C14.8155 15.313 13.2446 15.6389 11.7816 16.2591C10.3186 16.8793 8.99202 17.7816 7.87771 18.9145C6.76339 20.0474 5.88314 21.3887 5.28721 22.8618C4.69128 24.3348 4.39134 25.9109 4.40453 27.4999C4.38179 29.0948 4.6799 30.678 5.28116 32.1553C5.88242 33.6327 6.77455 34.9741 7.90453 36.0999C9.03825 37.2398 10.3861 38.1443 11.8706 38.7616C13.355 39.3788 14.9469 39.6966 16.5545 39.6966C18.1622 39.6966 19.754 39.3788 21.2385 38.7616C22.723 38.1443 24.0708 37.2398 25.2045 36.0999C26.3345 34.9741 27.2266 33.6327 27.8279 32.1553C28.4292 30.678 28.7273 29.0948 28.7045 27.4999V26.8999H20.0045V28.0999H27.6045C27.5174 30.2517 26.8005 32.3306 25.5428 34.0788C24.2852 35.827 22.542 37.1675 20.5295 37.9342C18.517 38.7008 16.3237 38.8599 14.2217 38.3916C12.1196 37.9233 10.2013 36.8483 8.70453 35.2999C6.65262 33.2223 5.502 30.4199 5.502 27.4999C5.502 24.5799 6.65262 21.7774 8.70453 19.6999C10.7662 17.6122 13.5706 16.4258 16.5045 16.3999H17.1045V15.2999H16.4045Z" fill="url(#paint9_radial_421_4091)"/>
<path d="M10.1045 22.8C10.1045 23.0364 10.1511 23.2705 10.2415 23.4889C10.332 23.7073 10.4646 23.9057 10.6317 24.0728C10.7988 24.24 10.9973 24.3726 11.2157 24.463C11.434 24.5535 11.6681 24.6 11.9045 24.6C12.1364 24.6004 12.366 24.5534 12.579 24.4618C12.7921 24.3702 12.9841 24.2359 13.1434 24.0673C13.3026 23.8987 13.4257 23.6993 13.505 23.4814C13.5843 23.2634 13.6181 23.0316 13.6045 22.8C13.6045 22.3492 13.4254 21.9168 13.1066 21.598C12.7878 21.2791 12.3554 21.1 11.9045 21.1C11.4439 21.0993 11.0006 21.2752 10.6658 21.5914C10.331 21.9076 10.1301 22.3402 10.1045 22.8Z" fill="url(#paint10_radial_421_4091)"/>
<path d="M12.2047 21.3999C12.6018 21.4263 12.9833 21.5651 13.3047 21.7999C13.1445 21.5796 12.9337 21.4011 12.69 21.2792C12.4464 21.1574 12.177 21.0959 11.9047 21.0999C11.4441 21.0992 11.0008 21.2751 10.666 21.5913C10.3311 21.9076 10.1303 22.3401 10.1047 22.7999C10.1007 23.0723 10.1621 23.3417 10.284 23.5853C10.4058 23.8289 10.5844 24.0397 10.8047 24.1999C10.6023 23.9063 10.4973 23.5565 10.5047 23.1999C10.491 22.9684 10.5249 22.7366 10.6042 22.5186C10.6835 22.3007 10.8066 22.1013 10.9658 21.9327C11.1251 21.7641 11.3171 21.6298 11.5302 21.5382C11.7432 21.4466 11.9728 21.3995 12.2047 21.3999Z" fill="white"/>
<path d="M17.1045 15.2999H16.5045C13.2862 15.3263 10.2088 16.6233 7.9424 18.9084C5.67604 21.1934 4.40442 24.2815 4.40453 27.4999C4.38179 29.0948 4.6799 30.678 5.28116 32.1553C5.88242 33.6327 6.77455 34.9741 7.90453 36.0999L8.10453 36.2999C5.96241 34.0303 4.78008 31.0207 4.80453 27.8999C4.80453 21.1999 9.50453 15.5999 17.1045 15.2999Z" fill="white"/>
<path d="M17.1045 32.7001C18.0518 32.9384 19.0284 33.0395 20.0045 33.0001V32.7001H17.1045Z" fill="white"/>
<path d="M17.1046 21.5V21.1H16.0046V33.9C16.0046 33.9 16.3046 31.9 16.3046 21.5H17.1046Z" fill="white"/>
<path d="M28.7046 26.9H20.0046V28.1H20.4046V27.3C27.9046 27.3 28.7046 26.9 28.7046 26.9Z" fill="white"/>
<path d="M27.6045 28.1001C27.4176 30.6883 26.3298 33.1292 24.5302 34.9986C22.7305 36.8681 20.3328 38.0479 17.7536 38.3332C15.1744 38.6184 12.5768 37.991 10.4121 36.56C8.24745 35.129 6.65254 32.9849 5.90454 30.5001C6.57526 32.8513 7.99051 34.9216 9.93784 36.4001C11.8852 37.8787 14.2596 38.6857 16.7045 38.7001C19.5465 38.6774 22.2715 37.5654 24.318 35.5933C26.3645 33.6212 27.5766 30.9393 27.7045 28.1001H27.6045Z" fill="white"/>
<defs>
<radialGradient id="paint0_radial_421_4091" cx="0" cy="0" r="1" gradientUnits="userSpaceOnUse" gradientTransform="translate(18.6891 26.8465) scale(15.3264 15.3264)">
<stop stop-color="#BE163A"/>
<stop offset="0.5" stop-color="#BE163A"/>
<stop offset="0.75" stop-color="#BC1639"/>
<stop offset="0.86" stop-color="#B51636"/>
<stop offset="0.94" stop-color="#A81731"/>
<stop offset="1" stop-color="#99182B"/>
</radialGradient>
<linearGradient id="paint1_linear_421_4091" x1="10.5945" y1="14.8101" x2="18.2845" y2="35.9401" gradientUnits="userSpaceOnUse">
<stop stop-color="#F08998"/>
<stop offset="0.05" stop-color="#EC7F90"/>
<stop offset="0.29" stop-color="#D8526B"/>
<stop offset="0.5" stop-color="#CA3150"/>
<stop offset="0.68" stop-color="#C11D40"/>
<stop offset="0.8" stop-color="#BE163A"/>
<stop offset="1" stop-color="#BE163A"/>
</linearGradient>
<linearGradient id="paint2_linear_421_4091" x1="6.84454" y1="20.03" x2="24.4745" y2="37.67" gradientUnits="userSpaceOnUse">
<stop stop-color="#CD3E5A"/>
<stop offset="0.06" stop-color="#C33753"/>
<stop offset="0.23" stop-color="#AF2944"/>
<stop offset="0.41" stop-color="#A01F39"/>
<stop offset="0.64" stop-color="#981933"/>
<stop offset="1" stop-color="#951731"/>
</linearGradient>
<linearGradient id="paint3_linear_421_4091" x1="16.9946" y1="26.9" x2="17.3246" y2="26.9" gradientUnits="userSpaceOnUse">
<stop stop-color="#C3C7CA"/>
<stop offset="0.11" stop-color="#B1B5B8"/>
<stop offset="0.53" stop-color="#6D7174"/>
<stop offset="0.84" stop-color="#43474A"/>
<stop offset="1" stop-color="#33373A"/>
</linearGradient>
<linearGradient id="paint4_linear_421_4091" x1="19.8945" y1="33.31" x2="20.1845" y2="33.31" gradientUnits="userSpaceOnUse">
<stop stop-color="#C0C4C9"/>
<stop offset="0.11" stop-color="#ADB1B6"/>
<stop offset="0.54" stop-color="#6B6F72"/>
<stop offset="0.84" stop-color="#424648"/>
<stop offset="1" stop-color="#323638"/>
</linearGradient>
<linearGradient id="paint5_linear_421_4091" x1="12.5046" y1="23.3681" x2="15.1776" y2="26.0411" gradientUnits="userSpaceOnUse">
<stop stop-color="#BBC3CA"/>
<stop offset="1" stop-color="#272A2C"/>
</linearGradient>
<linearGradient id="paint6_linear_421_4091" x1="10.3315" y1="23.2469" x2="27.8545" y2="40.7699" gradientUnits="userSpaceOnUse">
<stop stop-color="#C3C7CA"/>
<stop offset="1" stop-color="#424649"/>
</linearGradient>
<linearGradient id="paint7_linear_421_4091" x1="31.503" y1="26.9906" x2="9.25768" y2="26.9906" gradientUnits="userSpaceOnUse">
<stop stop-color="#C3C7CA"/>
<stop offset="1" stop-color="#4D5256"/>
</linearGradient>
<linearGradient id="paint8_linear_421_4091" x1="22.0777" y1="38.905" x2="22.1617" y2="38.905" gradientUnits="userSpaceOnUse">
<stop stop-color="#C0C4C9"/>
<stop offset="0.11" stop-color="#ADB1B6"/>
<stop offset="0.54" stop-color="#6B6F72"/>
<stop offset="0.84" stop-color="#424648"/>
<stop offset="1" stop-color="#323638"/>
</linearGradient>
<radialGradient id="paint9_radial_421_4091" cx="0" cy="0" r="1" gradientUnits="userSpaceOnUse" gradientTransform="translate(12.1515 21.3779) scale(18.732 18.732)">
<stop stop-color="white"/>
<stop offset="0.35" stop-color="white"/>
<stop offset="0.54" stop-color="#FBFBFC"/>
<stop offset="0.73" stop-color="#EEF1F2"/>
<stop offset="0.92" stop-color="#DADFE2"/>
<stop offset="1" stop-color="#CFD5D9"/>
</radialGradient>
<radialGradient id="paint10_radial_421_4091" cx="0" cy="0" r="1" gradientUnits="userSpaceOnUse" gradientTransform="translate(11.6895 21.252) scale(2.737 2.737)">
<stop stop-color="white"/>
<stop offset="0.35" stop-color="white"/>
<stop offset="0.57" stop-color="#FBFBFC"/>
<stop offset="0.79" stop-color="#EEF1F2"/>
<stop offset="1" stop-color="#DCE1E4"/>
</radialGradient>
</defs>
</svg>
