<svg width="174" height="60" viewBox="0 0 174 60" fill="none" xmlns="http://www.w3.org/2000/svg">
<g clip-path="url(#clip0_1161_3106)">
<path fill-rule="evenodd" clip-rule="evenodd" d="M30.3268 0.196617L24.1799 0.168274C24.913 9.80512 20.4579 11.7325 12.6474 5.58191L9.29194 9.23825C14.3674 17.0328 12.309 21.0009 1.90437 19.2436L1.28404 24.7139C10.4198 25.8476 9.57391 35.938 0.973877 36.5899L3.31421 42.3153C10.1096 38.6306 16.4539 44.7812 9.32014 50.7901L13.6906 55.155C18.9916 48.6643 25.5333 50.9034 24.6592 59.775L30.1012 59.8033L30.214 49.7413C5.2034 44.2143 7.37456 14.4818 30.0166 11.8459L30.3268 0.196617Z" fill="#231F20"/>
<path fill-rule="evenodd" clip-rule="evenodd" d="M32.2441 20.0939C38.1091 20.1222 42.9307 24.9406 42.9871 30.8361C43.0435 36.7316 38.3628 41.4933 32.4979 41.465C26.6329 41.4367 21.8113 36.6182 21.7549 30.7228C21.6985 24.7989 26.4074 20.0655 32.2441 20.0939Z" fill="#0071BB"/>
<path fill-rule="evenodd" clip-rule="evenodd" d="M43.41 4.22141C46.2579 4.22141 48.5983 6.57393 48.6264 9.46498C48.6546 12.3277 46.3707 14.6519 43.5228 14.6519C40.6749 14.6519 38.3346 12.2994 38.3064 9.4083C38.2782 6.54558 40.5622 4.22141 43.41 4.22141Z" fill="#F32735"/>
<path fill-rule="evenodd" clip-rule="evenodd" d="M46.9629 17.9398C49.9236 21.3977 51.7564 25.9043 51.8128 30.8361C51.9256 41.5784 43.6357 50.2232 33.3157 50.1665C33.3439 52.0089 33.3721 53.8512 33.3721 55.6935C46.6528 55.7502 57.3112 44.6395 57.142 30.8645C57.0856 25.6776 55.5066 20.8308 52.8279 16.8344L46.9629 17.9398Z" fill="#231F20"/>
<path d="M67.2083 3.08771H73.5807V31.9132H90.7526L89.9913 37.2135H67.2083V3.08771Z" fill="#0071BB"/>
<path d="M97.0687 1.13199H97.2097C98.8451 1.13199 100.199 2.46414 100.199 4.13642C100.199 5.78035 98.8733 7.14084 97.2097 7.14084H97.0687C95.4333 7.14084 94.0798 5.80869 94.0798 4.13642C94.0798 2.46414 95.4051 1.13199 97.0687 1.13199ZM94.0798 11.8459H100.17V37.2135H94.0798V11.8459Z" fill="#0071BB"/>
<path d="M128.029 1.13199V30.1842C128.029 32.5084 128.029 34.861 128.085 37.2135H122.22C122.079 36.4765 121.966 34.946 121.938 34.2374C120.698 36.4482 118.414 37.8087 114.523 37.8087C108.094 37.8087 104.062 32.6218 104.062 24.7706C104.062 16.9761 108.376 11.279 115.453 11.279C119.372 11.279 121.318 12.7529 121.938 13.9717V1.13199H128.029ZM110.349 24.6005C110.349 29.9292 112.605 32.8202 116.186 32.8202C121.346 32.8202 122.164 28.682 122.164 24.3738C122.164 19.6121 121.374 16.2392 116.412 16.2392C112.492 16.2392 110.349 19.357 110.349 24.6005Z" fill="#0071BB"/>
<path d="M137.954 25.791C137.982 29.6174 139.9 32.9336 143.622 32.9336C146.893 32.9336 147.879 31.4597 148.584 29.8158H154.703C153.773 32.9619 151.037 37.8087 143.453 37.8087C135.275 37.8087 131.779 31.4881 131.779 24.884C131.779 17.0611 135.755 11.279 143.706 11.279C152.194 11.279 155.041 17.6563 155.041 23.6936C155.041 24.5155 155.041 25.1107 154.957 25.8193H137.954V25.791ZM148.923 21.9079C148.866 18.535 147.4 15.7573 143.678 15.7573C139.956 15.7573 138.405 18.3366 138.095 21.9079H148.923Z" fill="#0071BB"/>
<path d="M158.961 18.7334C158.961 15.8707 158.932 13.7166 158.904 11.8459H164.882C164.967 12.4695 165.051 14.7936 165.051 16.5509C166.235 13.4615 169.027 11.3357 173.285 11.2507V17.1745C168.181 17.1462 165.051 18.9602 165.051 25.7343V37.2135H158.961V18.7334Z" fill="#0071BB"/>
<path d="M90.4988 52.7458L92.1624 52.4907C92.247 53.1709 92.529 53.6811 92.9519 54.0496C93.3749 54.4181 93.967 54.5881 94.7565 54.5881C95.5178 54.5881 96.1099 54.4181 96.4765 54.1063C96.8431 53.7945 97.0404 53.426 97.0404 53.0009C97.0404 52.6324 96.8713 52.3206 96.5329 52.0939C96.3073 51.9522 95.7152 51.7538 94.8129 51.527C93.5722 51.2152 92.7263 50.9318 92.247 50.705C91.7676 50.4783 91.4011 50.1665 91.1473 49.7414C90.8935 49.3446 90.7807 48.8911 90.7807 48.4092C90.7807 47.9557 90.8935 47.5589 91.0909 47.1621C91.2883 46.7936 91.5703 46.4535 91.9368 46.2268C92.1906 46.0284 92.5571 45.8583 93.0083 45.7449C93.4594 45.6032 93.9388 45.5465 94.4745 45.5465C95.264 45.5465 95.9408 45.6599 96.5329 45.8866C97.125 46.1134 97.5762 46.4252 97.8299 46.822C98.1119 47.2188 98.3093 47.729 98.4221 48.3809L96.7585 48.6076C96.6739 48.0974 96.4765 47.7006 96.1099 47.3888C95.7434 47.1054 95.2358 46.9637 94.5873 46.9637C93.826 46.9637 93.2621 47.1054 92.9237 47.3605C92.5853 47.6156 92.4162 47.9274 92.4162 48.2675C92.4162 48.4942 92.4726 48.6926 92.6135 48.8627C92.7545 49.0328 92.9801 49.2028 93.2621 49.3162C93.4312 49.3729 93.9388 49.5146 94.7565 49.7414C95.9408 50.0531 96.7867 50.3366 97.266 50.535C97.7454 50.7334 98.1119 51.0452 98.3657 51.4136C98.6477 51.8104 98.7604 52.2923 98.7604 52.8592C98.7604 53.426 98.5913 53.9646 98.2811 54.4464C97.9427 54.9566 97.4916 55.3251 96.8431 55.6085C96.2227 55.8919 95.5178 56.0337 94.7283 56.0337C93.4312 56.0337 92.4444 55.7502 91.7676 55.2117C91.1191 54.6165 90.6962 53.7945 90.4988 52.7458Z" fill="#0071BB"/>
<path d="M107.614 52.4907L109.362 52.7174C109.08 53.7378 108.573 54.5314 107.84 55.0983C107.107 55.6652 106.148 55.9486 104.992 55.9486C103.526 55.9486 102.37 55.4951 101.524 54.5881C100.678 53.6811 100.255 52.4057 100.255 50.7901C100.255 49.1178 100.678 47.7856 101.552 46.8786C102.426 45.9433 103.526 45.4898 104.907 45.4898C106.233 45.4898 107.332 45.9433 108.178 46.8503C109.024 47.7573 109.447 49.0328 109.447 50.705C109.447 50.7901 109.447 50.9601 109.447 51.1585H102.031C102.088 52.2639 102.398 53.1143 102.962 53.6811C103.526 54.2763 104.202 54.5598 105.048 54.5598C105.669 54.5598 106.204 54.3897 106.627 54.0779C107.022 53.7378 107.36 53.2276 107.614 52.4907ZM102.059 49.7414H107.614C107.53 48.891 107.332 48.2675 106.966 47.8423C106.43 47.1904 105.725 46.8503 104.879 46.8503C104.118 46.8503 103.441 47.1054 102.934 47.6439C102.398 48.1825 102.116 48.891 102.059 49.7414Z" fill="#0071BB"/>
<path d="M111.449 55.7219V45.7166H112.972V47.2471C113.366 46.5385 113.705 46.0567 114.043 45.8299C114.381 45.6032 114.72 45.4898 115.115 45.4898C115.678 45.4898 116.271 45.6599 116.863 46.0283L116.271 47.6156C115.848 47.3605 115.453 47.2471 115.03 47.2471C114.663 47.2471 114.325 47.3605 114.043 47.5872C113.761 47.814 113.536 48.1258 113.423 48.5226C113.225 49.1178 113.141 49.798 113.141 50.5066V55.7502L111.449 55.7219Z" fill="#0071BB"/>
<path d="M120.641 55.7219L116.863 45.7166H118.639L120.782 51.7254C121.008 52.3773 121.233 53.0576 121.431 53.7378C121.572 53.1993 121.797 52.5757 122.051 51.8388L124.25 45.7166H125.999L122.22 55.7219H120.641Z" fill="#0071BB"/>
<path d="M127.493 43.8459V41.8902H129.185V43.8459H127.493ZM127.493 55.7219V45.7166H129.185V55.7219H127.493Z" fill="#0071BB"/>
<path d="M138.236 52.0656L139.9 52.2923C139.731 53.4544 139.251 54.3331 138.518 54.985C137.757 55.6369 136.854 55.9486 135.755 55.9486C134.401 55.9486 133.302 55.4951 132.456 54.6165C131.638 53.7095 131.215 52.434 131.215 50.7617C131.215 49.6847 131.384 48.7493 131.751 47.9274C132.117 47.1054 132.653 46.5102 133.386 46.1134C134.119 45.7166 134.909 45.5182 135.755 45.5182C136.826 45.5182 137.729 45.8016 138.405 46.3401C139.082 46.8787 139.533 47.6723 139.731 48.6927L138.095 48.9477C137.926 48.2675 137.672 47.7573 137.249 47.4172C136.854 47.0771 136.375 46.907 135.811 46.907C134.965 46.907 134.26 47.2188 133.725 47.8423C133.189 48.4659 132.935 49.4296 132.935 50.7617C132.935 52.1222 133.189 53.0859 133.696 53.6811C134.204 54.2764 134.881 54.5881 135.698 54.5881C136.347 54.5881 136.911 54.3897 137.362 53.9646C137.841 53.5394 138.123 52.9159 138.236 52.0656Z" fill="#0071BB"/>
<path d="M148.189 52.4907L149.938 52.7174C149.656 53.7378 149.148 54.5314 148.415 55.0983C147.682 55.6652 146.723 55.9486 145.567 55.9486C144.101 55.9486 142.945 55.4951 142.099 54.5881C141.253 53.6811 140.83 52.4057 140.83 50.7901C140.83 49.1178 141.253 47.7856 142.127 46.8786C143.001 45.9433 144.101 45.4898 145.483 45.4898C146.808 45.4898 147.907 45.9433 148.753 46.8503C149.599 47.7573 150.022 49.0328 150.022 50.705C150.022 50.7901 150.022 50.9601 150.022 51.1585H142.606C142.663 52.2639 142.973 53.1143 143.537 53.6811C144.101 54.2763 144.778 54.5598 145.624 54.5598C146.244 54.5598 146.78 54.3897 147.203 54.0779C147.569 53.7378 147.936 53.2276 148.189 52.4907ZM142.635 49.7414H148.189C148.105 48.891 147.907 48.2675 147.541 47.8423C147.005 47.1904 146.3 46.8503 145.454 46.8503C144.665 46.8503 144.016 47.1054 143.509 47.6439C142.973 48.1825 142.691 48.891 142.635 49.7414Z" fill="#0071BB"/>
</g>
<defs>
<clipPath id="clip0_1161_3106">
<rect width="174" height="60" fill="white"/>
</clipPath>
</defs>
</svg>
