<svg width="126" height="65" viewBox="0 0 126 65" fill="none" xmlns="http://www.w3.org/2000/svg">
<g clip-path="url(#clip0_421_4075)">
<mask id="mask0_421_4075" style="mask-type:alpha" maskUnits="userSpaceOnUse" x="0" y="0" width="126" height="65">
<path d="M126 0H0V65H126V0Z" fill="#C4C4C4"/>
</mask>
<g mask="url(#mask0_421_4075)">
<path fill-rule="evenodd" clip-rule="evenodd" d="M0 23.9003H22.9345V21H0V23.9003ZM35.4073 21.0257H126V23.926H35.4073V21.0257ZM95.3527 29.6752H106.807V26.7749H89.6255C85.8073 26.7749 83.8982 28.6999 83.8982 32.5499V41.2251H106.807V38.3248H92.4764V35.4245H98.2036V32.5242H92.4764C92.5018 30.6505 93.4436 29.6752 95.3527 29.6752ZM108.818 41.2507V26.8006H117.396V38.3504H126V41.2507H108.818ZM126 47H0.0254545V44.0997H126V47ZM71.4 29.6752H82.8545V26.7749H65.6727C61.8545 26.7749 59.9455 28.6999 59.9455 32.5499V41.2251H68.5491V35.4501H74.2764V32.5499H68.5491C68.5236 30.6505 69.4909 29.6752 71.4 29.6752ZM58.3164 29.6752H46.8618C44.9527 29.6752 43.9855 30.6505 44.0109 32.5499H49.7382V35.4501H44.0109V41.2251H35.4073V32.5499C35.4073 28.6999 37.3164 26.7749 41.1345 26.7749H58.3164V29.6752ZM33.2691 26.8006H24.6655V41.2507H33.2691V26.8006ZM24.6655 21.0257H33.2691V23.926H24.6655V21.0257ZM14.3055 31.1382C14.3055 32.1135 13.3636 32.5755 11.48 32.5755H0.0254545V41.2507H8.62909V35.4758H11.48C13.3891 35.4758 14.3564 36.4511 14.3564 38.3761V41.2764H22.96C22.96 37.4265 21.0509 35.5015 17.2327 35.5015H14.3564C20.0836 35.5015 22.9345 34.0642 22.9345 31.1639C22.9345 28.2636 21.0255 26.8263 17.2073 26.8519H0.0509091V29.7266H11.48C13.3636 29.7009 14.3055 30.1885 14.3055 31.1382Z" fill="#00A48A"/>
</g>
</g>
<defs>
<clipPath id="clip0_421_4075">
<rect width="126" height="65" fill="white"/>
</clipPath>
</defs>
</svg>
