<svg width="10" height="5" viewBox="0 0 10 5" fill="none" xmlns="http://www.w3.org/2000/svg">
<path d="M9.66669 0.780222C9.66703 0.879818 9.64505 0.978224 9.60237 1.06821C9.55968 1.1582 9.49737 1.23748 9.42003 1.30022L5.42002 4.52022C5.30074 4.61827 5.15111 4.67187 4.99669 4.67187C4.84227 4.67187 4.69265 4.61827 4.57336 4.52022L0.573354 1.18689C0.43721 1.07373 0.351594 0.911122 0.33534 0.734838C0.319087 0.558554 0.373529 0.383034 0.486688 0.246889C0.599847 0.110745 0.762454 0.0251293 0.938739 0.00887582C1.11502 -0.00737718 1.29054 0.0470638 1.42669 0.160222L5.00002 3.14022L8.57336 0.260223C8.67122 0.178701 8.79038 0.126916 8.91674 0.110996C9.04311 0.0950767 9.17139 0.115688 9.28641 0.170392C9.40143 0.225095 9.49837 0.311602 9.56576 0.419675C9.63316 0.527749 9.66818 0.652866 9.66669 0.780222Z" fill="white"/>
</svg>
