<svg width="8" height="10" viewBox="0 0 8 10" fill="none" xmlns="http://www.w3.org/2000/svg">
<path d="M3.30712 0.749791C3.33897 0.717182 3.37703 0.691284 3.41905 0.673625C3.46107 0.655965 3.5062 0.646903 3.55178 0.646973C3.59736 0.647043 3.64246 0.656244 3.68443 0.674032C3.7264 0.69182 3.76438 0.717835 3.79612 0.750541L7.68263 4.73829C7.75089 4.80832 7.78909 4.90225 7.78909 5.00004C7.78909 5.09784 7.75089 5.19176 7.68263 5.26179L3.79612 9.24954C3.76432 9.2822 3.72631 9.30816 3.68431 9.32588C3.64232 9.3436 3.5972 9.35273 3.55162 9.35273C3.50604 9.35273 3.46092 9.3436 3.41893 9.32588C3.37694 9.30816 3.33892 9.2822 3.30712 9.24954C3.2417 9.18257 3.20508 9.09266 3.20508 8.99904C3.20508 8.90542 3.2417 8.81551 3.30712 8.74854L6.96188 5.00004L3.30712 1.25004C3.24193 1.1831 3.20545 1.09336 3.20545 0.999916C3.20545 0.906477 3.24193 0.81673 3.30712 0.749791ZM0.307118 0.749791C0.338965 0.717182 0.377022 0.691284 0.419043 0.673625C0.461063 0.655965 0.506196 0.646903 0.551776 0.646973C0.597357 0.647043 0.642461 0.656244 0.684428 0.674032C0.726394 0.69182 0.764371 0.717835 0.796118 0.750541L4.68262 4.73829C4.75088 4.80832 4.78909 4.90225 4.78909 5.00004C4.78909 5.09784 4.75088 5.19176 4.68262 5.26179L0.796118 9.24954C0.764321 9.2822 0.726304 9.30816 0.68431 9.32588C0.642317 9.3436 0.597198 9.35273 0.551618 9.35273C0.506038 9.35273 0.460919 9.3436 0.418926 9.32588C0.376932 9.30816 0.338915 9.2822 0.307118 9.24954C0.241701 9.18257 0.205078 9.09266 0.205078 8.99904C0.205078 8.90542 0.241701 8.81551 0.307118 8.74854L3.96187 5.00004L0.307118 1.25004C0.241925 1.1831 0.205444 1.09336 0.205444 0.999916C0.205444 0.906477 0.241925 0.81673 0.307118 0.749791Z" fill="#0071BB"/>
</svg>
