<svg width="14" height="11" viewBox="0 0 14 11" fill="none" xmlns="http://www.w3.org/2000/svg">
<path fill-rule="evenodd" clip-rule="evenodd" d="M0.475328 0.939422C0.460844 0.984582 0.454046 1.0313 0.454624 1.0777V9.79985C0.454624 10.0408 0.649989 10.2362 0.890985 10.2362H13.1091C13.3501 10.2362 13.5455 10.0408 13.5455 9.79985V1.07771C13.546 1.0313 13.5392 0.984586 13.5248 0.939422C13.5081 0.887332 13.4819 0.839502 13.4482 0.797977C13.409 0.749516 13.3613 0.711485 13.3087 0.68451C13.2451 0.651832 13.1744 0.635379 13.1033 0.636264H0.896801C0.885953 0.636129 0.875114 0.636398 0.864308 0.637066C0.745924 0.644389 0.631446 0.699684 0.552062 0.797754C0.5465 0.804625 0.54111 0.811706 0.535903 0.818996C0.508902 0.856797 0.488794 0.897438 0.475328 0.939422ZM11.7475 1.50899H2.25264L7.00004 4.89999L11.7475 1.50899ZM12.6727 1.92056L7.25367 5.79132C7.10195 5.89969 6.89814 5.89969 6.74641 5.79132L1.32735 1.92056V9.36349H12.6727V1.92056Z" fill="#0071BB"/>
</svg>
