<svg width="18" height="13" viewBox="0 0 18 13" fill="none" xmlns="http://www.w3.org/2000/svg">
<path fill-rule="evenodd" clip-rule="evenodd" d="M0.844038 0.92443C0.825933 0.98088 0.817436 1.03927 0.818158 1.09728V12C0.818158 12.3012 1.06236 12.5454 1.36361 12.5454H16.6363C16.9375 12.5454 17.1817 12.3012 17.1817 12V1.0973C17.1824 1.03928 17.1739 0.980885 17.1558 0.92443C17.135 0.859318 17.1022 0.79953 17.0601 0.747624C17.0112 0.687048 16.9515 0.639509 16.8858 0.605791C16.8062 0.564943 16.7179 0.544377 16.629 0.545483H1.37088C1.35732 0.545314 1.34377 0.54565 1.33026 0.546486C1.18228 0.555638 1.03919 0.624757 0.939955 0.747345C0.933003 0.755934 0.926265 0.764786 0.919757 0.773897C0.886006 0.821149 0.86087 0.87195 0.844038 0.92443ZM14.9342 1.63639H3.06567L8.99993 5.87514L14.9342 1.63639ZM16.0908 2.15085L9.31697 6.9893C9.12732 7.12477 8.87255 7.12477 8.6829 6.9893L1.90906 2.15085V11.4545H16.0908V2.15085Z" fill="white"/>
</svg>
