<svg width="24" height="24" viewBox="0 0 24 24" fill="none" xmlns="http://www.w3.org/2000/svg">
<path d="M3.33727 1.21648C3.05436 0.943241 2.67546 0.792049 2.28217 0.795467C1.88887 0.798884 1.51265 0.956638 1.23454 1.23475C0.956428 1.51286 0.798674 1.88908 0.795257 2.28238C0.791839 2.67567 0.943031 3.05457 1.21627 3.33748L9.87877 12L1.21477 20.6625C1.0715 20.8008 0.957229 20.9664 0.878616 21.1494C0.800002 21.3324 0.758623 21.5292 0.756893 21.7284C0.755162 21.9275 0.793114 22.1251 0.868535 22.3094C0.943957 22.4938 1.05534 22.6612 1.19618 22.8021C1.33701 22.9429 1.50449 23.0543 1.68884 23.1297C1.87318 23.2051 2.0707 23.2431 2.26987 23.2414C2.46904 23.2396 2.66587 23.1982 2.84888 23.1196C3.03188 23.041 3.1974 22.9267 3.33577 22.7835L11.9998 14.121L20.6623 22.7835C20.9452 23.0567 21.3241 23.2079 21.7174 23.2045C22.1107 23.2011 22.4869 23.0433 22.765 22.7652C23.0431 22.4871 23.2009 22.1109 23.2043 21.7176C23.2077 21.3243 23.0565 20.9454 22.7833 20.6625L14.1208 12L22.7833 3.33748C23.0565 3.05457 23.2077 2.67567 23.2043 2.28238C23.2009 1.88908 23.0431 1.51286 22.765 1.23475C22.4869 0.956638 22.1107 0.798884 21.7174 0.795467C21.3241 0.792049 20.9452 0.943241 20.6623 1.21648L11.9998 9.87898L3.33727 1.21498V1.21648Z" fill="#2B343B"/>
</svg>
