<svg width="20" height="20" viewBox="0 0 20 20" fill="none" xmlns="http://www.w3.org/2000/svg">
<path fill-rule="evenodd" clip-rule="evenodd" d="M1.2501 9.99994C1.2501 10.1657 1.31595 10.3247 1.43316 10.4419C1.55037 10.5591 1.70934 10.6249 1.8751 10.6249L16.6164 10.6249L12.6826 14.5574C12.6245 14.6156 12.5784 14.6845 12.5469 14.7605C12.5155 14.8364 12.4993 14.9178 12.4993 14.9999C12.4993 15.0821 12.5155 15.1635 12.5469 15.2394C12.5784 15.3153 12.6245 15.3843 12.6826 15.4424C12.7407 15.5006 12.8097 15.5466 12.8856 15.5781C12.9615 15.6095 13.0429 15.6257 13.1251 15.6257C13.2073 15.6257 13.2887 15.6095 13.3646 15.5781C13.4405 15.5466 13.5095 15.5006 13.5676 15.4424L18.5676 10.4424C18.6258 10.3844 18.672 10.3154 18.7035 10.2395C18.735 10.1636 18.7512 10.0822 18.7512 9.99994C18.7512 9.91773 18.735 9.83633 18.7035 9.7604C18.672 9.68447 18.6258 9.6155 18.5676 9.55744L13.5676 4.55744C13.5095 4.49933 13.4405 4.45324 13.3646 4.42179C13.2887 4.39034 13.2073 4.37415 13.1251 4.37415C13.0429 4.37415 12.9615 4.39034 12.8856 4.42179C12.8097 4.45324 12.7407 4.49933 12.6826 4.55744C12.6245 4.61555 12.5784 4.68454 12.5469 4.76046C12.5155 4.83639 12.4993 4.91776 12.4993 4.99994C12.4993 5.08212 12.5155 5.1635 12.5469 5.23942C12.5784 5.31535 12.6245 5.38433 12.6826 5.44244L16.6164 9.37494L1.8751 9.37494C1.70934 9.37494 1.55037 9.44079 1.43316 9.558C1.31595 9.67521 1.2501 9.83418 1.2501 9.99994Z" fill="#0071BB"/>
</svg>
