<svg width="83" height="65" viewBox="0 0 83 65" fill="none" xmlns="http://www.w3.org/2000/svg">
<g clip-path="url(#clip0_421_4021)">
<path d="M83 0H0V65H83V0Z" fill="#1680C1" fill-opacity="0.01"/>
<mask id="mask0_421_4021" style="mask-type:alpha" maskUnits="userSpaceOnUse" x="0" y="0" width="83" height="65">
<path d="M83 0H0V65H83V0Z" fill="white"/>
</mask>
<g mask="url(#mask0_421_4021)">
<path d="M42.6616 18.1033V44.5731H48.9627V35.1989L55.3929 44.5731H63.5275L54.5923 34.011L62.6495 24.3786H54.5665H54.489L48.9627 32.7714V18.1033H42.6616Z" fill="#1680C1"/>
<path fill-rule="evenodd" clip-rule="evenodd" d="M22.2603 34.7341C22.2603 29.5951 25.4367 23.9396 32.4609 23.9396C38.9944 23.9396 41.4735 29.0011 41.4477 34.011C41.4477 35.0956 41.3186 36.0253 41.2411 36.4901H28.2257C28.4323 39.0984 30.9889 40.3379 33.9329 40.3379C36.0763 40.3379 37.8065 40.0538 39.5109 39.5115L40.3373 43.7725C38.2713 44.5989 35.7664 45.0121 33.029 45.0121C26.1856 45.0121 22.2603 41.061 22.2603 34.7341ZM32.0735 28.1231C29.4395 28.1231 28.3548 30.4989 28.1999 32.2033H35.6373C35.6373 30.6797 34.9658 28.1231 32.0735 28.1231Z" fill="#1680C1"/>
<path fill-rule="evenodd" clip-rule="evenodd" d="M6.71424 24.6368C8.00545 24.1978 9.42577 23.9396 11.001 23.9396C17.1988 23.9396 21.3307 28.1747 21.3307 34.2434C21.3307 41.6549 16.0884 45.0379 10.6653 45.0379C4.90654 45.0379 0.464785 41.3709 0.206543 35.1731V18.1033H6.71424V24.6368ZM6.74006 35.1473C6.92083 38.272 8.34116 40.5445 10.8461 40.5445C13.2735 40.5445 14.8488 38.0912 14.8488 34.45C14.8488 31.4286 13.6867 28.3813 10.8461 28.3813C8.05709 28.3813 6.89501 31.0412 6.74006 33.8044V35.1473Z" fill="#1680C1"/>
<path fill-rule="evenodd" clip-rule="evenodd" d="M60.7642 34.6308C60.7642 28.0973 65.0768 23.9396 71.5587 23.9396C77.7565 23.9396 81.8884 28.1747 81.8884 34.2434C81.8884 41.6549 76.6202 45.0379 71.223 45.0379C65.3092 45.0379 60.7642 41.1643 60.7642 34.6308ZM67.2719 34.4758C67.2719 37.9363 68.718 40.5445 71.4037 40.5445C73.8312 40.5445 75.4065 38.0912 75.4065 34.4758C75.4065 31.4544 74.2444 28.4071 71.4037 28.4071C68.3823 28.4071 67.2719 31.506 67.2719 34.4758Z" fill="#1680C1"/>
<path d="M0.232422 58.544V64.8967L79.5901 53.7407V47.4137L0.232422 58.544Z" fill="#1680C1"/>
</g>
</g>
<defs>
<clipPath id="clip0_421_4021">
<rect width="83" height="65" fill="white"/>
</clipPath>
</defs>
</svg>
