<svg width="182" height="65" viewBox="0 0 182 65" fill="none" xmlns="http://www.w3.org/2000/svg">
<g clip-path="url(#clip0_421_4047)">
<mask id="mask0_421_4047" style="mask-type:alpha" maskUnits="userSpaceOnUse" x="0" y="0" width="182" height="65">
<path d="M182 0H0V65H182V0Z" fill="#C4C4C4"/>
</mask>
<g mask="url(#mask0_421_4047)">
<path fill-rule="evenodd" clip-rule="evenodd" d="M138.226 27.9032C136.129 26.1613 133.677 25.4516 131 25.3548C130.903 25.3548 130.806 25.3548 130.742 25.3226H115.806V25.4839V44.4516C115.806 44.6452 115.871 44.6774 116.032 44.6774H124.032C124.796 44.6774 125.559 44.681 126.323 44.6846C127.849 44.6918 129.376 44.6989 130.903 44.6774C131.742 44.6774 132.548 44.6129 133.355 44.4516C134.484 44.2581 135.581 43.9032 136.613 43.3548C138.258 42.4839 139.581 41.2903 140.484 39.6452C141.581 37.6452 141.903 35.5161 141.452 33.2903C141 31.129 139.935 29.3226 138.226 27.9032ZM123.548 40.4194V35C123.548 33.1935 123.548 31.3871 123.581 29.6129C123.581 29.4516 123.613 29.4194 123.774 29.4194H127.065C128.355 29.4194 129.581 29.7097 130.677 30.3871C132.065 31.2258 132.903 32.4839 133.194 34.0968C133.452 35.4839 133.194 36.7742 132.452 37.9677C131.903 38.8387 131.161 39.4839 130.226 39.9355C129.194 40.4194 128.129 40.6129 127 40.6129H123.742C123.581 40.6129 123.548 40.5806 123.548 40.4194Z" fill="#001F39"/>
<path fill-rule="evenodd" clip-rule="evenodd" d="M53.4191 27.0645C52.1933 25.9032 50.6772 25.4194 49.032 25.3548C43.2578 25.3548 37.4514 25.3548 31.5804 25.2903H31.5159V26.0323V44.6129H39.2578V44.3548V38.0968C39.2578 37.9677 39.2901 37.9355 39.4191 37.9355H42.032C42.2014 37.9355 42.3708 37.9335 42.5401 37.9315C43.0482 37.9254 43.5562 37.9194 44.0643 37.9677C44.903 38.0645 45.5804 38.4516 46.032 39.1613C46.2571 39.5115 46.4241 39.881 46.593 40.2549C46.6419 40.3633 46.691 40.472 46.7417 40.5806V40.5807C47.3546 41.871 47.9675 43.1613 48.5482 44.4516C48.6127 44.6129 48.7095 44.6774 48.8708 44.6774H56.5482C56.6583 44.6774 56.7147 44.6774 56.7324 44.6512C56.751 44.6237 56.7268 44.5673 56.6772 44.4516C56.5804 44.1936 56.4514 43.9032 56.3224 43.6129C56.023 42.9286 55.7425 42.2318 55.4615 41.5334C55.1065 40.6515 54.7507 39.7673 54.3546 38.9032C53.8708 37.871 53.2578 36.9355 52.3224 36.2581C52.2428 36.1944 52.2025 36.1622 52.2053 36.1342C52.2082 36.1055 52.2565 36.0813 52.3546 36.0323C53.6449 35.3871 54.4837 34.3548 54.903 33C55.2256 32.0323 55.2578 31.0645 55.0643 30.0968C54.8385 28.9032 54.2901 27.9032 53.4191 27.0645ZM44.5159 33.7742H42.1288C41.2901 33.7742 40.4514 33.7742 39.6127 33.8065C39.4837 33.8065 39.4514 33.7742 39.4514 33.6452V29.5484C39.4514 29.4194 39.4837 29.3871 39.6127 29.3871C40.1372 29.3871 40.6653 29.3835 41.1957 29.38C42.2638 29.3728 43.3415 29.3655 44.4191 29.3871C45.2256 29.3871 45.9353 29.6129 46.5159 30.1935C47.4837 31.1935 47.2256 32.7742 45.9998 33.4194C45.5482 33.6452 45.032 33.7742 44.5159 33.7742Z" fill="#001F39"/>
<path d="M105.064 25.2258C106.258 25.2581 107.387 25.4516 108.419 26.0645C109.355 26.5806 110.032 27.3548 110.484 28.3226C110.806 29.0323 111 29.7742 111.097 30.5806C111.226 31.8065 111.161 33.0323 111.161 34.2581C111.161 37.6452 111.161 41.0323 111.161 44.4194C111.161 44.7742 111.194 44.7419 110.839 44.7419C108.419 44.7419 106 44.7419 103.581 44.7419C103.419 44.7419 103.355 44.7097 103.355 44.5161C103.355 40.2903 103.355 36.0645 103.355 31.8387C103.355 30.5806 102.677 29.7419 101.452 29.4839C101.258 29.4516 101.064 29.4194 100.903 29.4194C99.1612 29.4194 97.4515 29.4194 95.7096 29.4194C95.5483 29.4194 95.516 29.4839 95.516 29.6452C95.516 34.6129 95.516 39.5484 95.516 44.4839C95.516 44.7097 95.516 44.7097 95.2902 44.7097C92.8063 44.7097 90.3225 44.7097 87.8386 44.7097C87.7096 44.7097 87.645 44.7097 87.645 44.5484C87.645 38.1613 87.645 31.7742 87.645 25.3871C87.645 25.3548 87.645 25.3226 87.645 25.2903C87.7096 25.2903 87.8063 25.2903 87.8708 25.2903C93.516 25.2903 99.1612 25.2903 104.806 25.2903C104.903 25.2581 105 25.2581 105.064 25.2258Z" fill="#001F39"/>
<path d="M65.5804 44.6452C64.3869 44.6452 63.2901 44.3871 62.2578 43.7742C61.032 43.0645 60.2578 42.0323 59.8385 40.7097C59.6449 40.0645 59.5159 39.4194 59.5159 38.7419C59.5159 38.6452 59.5159 38.5806 59.5159 38.4839C59.5159 34.3226 59.5159 30.1613 59.5159 26C59.5159 25.7742 59.5159 25.5484 59.5159 25.3226C59.6127 25.3226 59.6772 25.3226 59.774 25.3226C62.3224 25.3226 64.8385 25.3226 67.3546 25.3226C67.3546 25.3871 67.3546 25.4839 67.3546 25.5484C67.3546 29.7419 67.3546 33.9677 67.3546 38.1935C67.3546 38.9677 67.6127 39.6129 68.1933 40.0968C68.5804 40.4194 69.032 40.5806 69.5159 40.5806C71.3546 40.5806 73.2256 40.5806 75.0643 40.5806C75.2256 40.5806 75.2256 40.5161 75.2256 40.3871C75.2256 38.4194 75.2256 36.4194 75.2256 34.4516C75.2256 31.4839 75.2256 28.4839 75.2256 25.5161C75.2256 25.4516 75.2256 25.3548 75.2256 25.2903C77.8062 25.2903 80.3869 25.2903 82.9675 25.2903C82.9675 25.3871 82.9675 25.4516 82.9675 25.5484C82.9675 31.9032 82.9675 38.2581 82.9675 44.6129C80.1933 44.6129 77.4514 44.6129 74.6772 44.6129C71.6772 44.6452 68.6127 44.6452 65.5804 44.6452Z" fill="#001F39"/>
<path d="M26.9354 33.9355C26.9354 35 26.9354 36.0645 26.9354 37.129C26.9354 39.6129 26.9354 42.0968 26.9354 44.5806C26.9354 44.7419 26.9031 44.7742 26.7418 44.7742C21.7418 44.7742 16.7418 44.7742 11.7418 44.7742C10.1934 44.7742 8.70953 44.5484 7.25792 44C6.06437 43.5484 4.99985 42.9032 4.06437 42C2.70953 40.7419 1.83856 39.1935 1.35469 37.3871C1.09663 36.4516 0.999853 35.5161 1.03211 34.5806C1.09663 32.4516 1.74179 30.5484 3.03211 28.871C4.03211 27.5806 5.29018 26.6452 6.77405 26.0323C7.80631 25.6129 8.87082 25.3548 9.9676 25.2258C10.2257 25.1935 10.4837 25.1613 10.7418 25.1935C10.8063 25.1935 10.8708 25.1935 10.9676 25.1935C15.5483 25.1935 20.1289 25.1935 24.7096 25.1935C24.8708 25.1935 24.9354 25.2258 24.9354 25.4194C24.9354 26.7097 24.9354 28.0323 24.9354 29.3548C24.8708 29.3548 24.7741 29.3548 24.7096 29.3548C21.7096 29.3548 18.7096 29.3548 15.7096 29.3548C14.387 29.3548 13.0966 29.6129 11.9354 30.3226C10.4192 31.2258 9.48372 32.5484 9.22566 34.3226C8.99985 35.871 9.38695 37.2581 10.3547 38.4516C10.9354 39.1935 11.6773 39.7097 12.5483 40.0645C13.2579 40.3548 13.9999 40.5484 14.7741 40.5806C16.1934 40.6452 17.6128 40.5806 19.0321 40.6129C19.1934 40.6129 19.1612 40.5161 19.1612 40.4194C19.1612 39.8065 19.1612 39.2258 19.1612 38.6129C19.1612 37.8065 19.1612 37.0323 19.1612 36.2258C19.1612 35.4516 19.1612 34.6774 19.1612 33.9032C21.7741 33.9355 24.3547 33.9355 26.9354 33.9355Z" fill="#001F39"/>
<path d="M181.581 33.9355C181.581 34 181.581 34.0645 181.581 34.129C181.581 37.5806 181.581 41.0323 181.581 44.4839C181.581 44.6774 181.548 44.7097 181.355 44.7097C176.323 44.7097 171.258 44.7097 166.226 44.7097C164.742 44.7097 163.29 44.5484 161.871 44C159 42.9355 157.065 40.9355 156.065 38.0323C155.677 36.9355 155.548 35.7742 155.581 34.6129C155.645 32.6452 156.194 30.8387 157.355 29.2581C158.484 27.6774 160 26.5806 161.806 25.9355C162.742 25.6129 163.71 25.3871 164.71 25.2903C164.968 25.2581 165.194 25.2581 165.452 25.2258C165.516 25.2581 165.613 25.2581 165.677 25.2581C170.194 25.2581 174.742 25.2581 179.258 25.2581C179.419 25.2581 179.484 25.2903 179.484 25.4839C179.484 26.7742 179.484 28.0968 179.484 29.4194C179.419 29.4194 179.323 29.4194 179.258 29.4194C176.29 29.4194 173.323 29.4194 170.387 29.4194C169.032 29.4194 167.774 29.7097 166.581 30.3871C165.065 31.2903 164.161 32.5806 163.871 34.3226C163.645 35.8387 164 37.2258 164.936 38.4194C165.613 39.2903 166.516 39.871 167.548 40.2258C168.355 40.5161 169.226 40.6129 170.097 40.6129C171.29 40.6129 172.484 40.6129 173.677 40.6129C173.742 40.5484 173.71 40.4839 173.71 40.4194C173.71 38.3226 173.71 36.2258 173.71 34.129C173.71 34 173.677 33.9355 173.871 33.9355C176.452 33.9355 179.032 33.9355 181.581 33.9355Z" fill="#001F39"/>
<path d="M144.871 44.6452C144.871 44.5806 144.871 44.5161 144.871 44.4516C144.871 38.129 144.871 31.8387 144.871 25.5161C144.871 25.4516 144.871 25.3871 144.871 25.3226C145.161 25.3226 145.419 25.3226 145.71 25.3226C148.065 25.3226 150.387 25.3226 152.742 25.3226C152.742 25.4194 152.742 25.4839 152.742 25.5806C152.742 31.9355 152.742 38.2903 152.742 44.6452C150.097 44.6452 147.484 44.6452 144.871 44.6452Z" fill="#001F39"/>
<path d="M31.5806 25.3548C31.5806 25.6129 31.5806 25.8387 31.5806 26.0968C31.5806 32.2903 31.5806 38.4839 31.5806 44.6774C31.5161 44.6452 31.5484 44.5806 31.5484 44.5161C31.5484 38.6452 31.5484 32.7742 31.5484 26.9032C31.5484 26.4516 31.5484 26 31.5484 25.5484C31.5484 25.4516 31.5161 25.3871 31.5806 25.3548Z" fill="#001F39"/>
<path d="M83 44.6452C83 38.2903 83 31.9355 83 25.5806C83 25.4839 83 25.4194 83 25.3226C83.0645 25.3548 83.0323 25.4516 83.0323 25.4839C83.0323 31.8065 83.0323 38.129 83.0323 44.4516C83.0323 44.5484 83.0645 44.6129 83 44.6452Z" fill="#001F39"/>
<path d="M152.71 44.6452C152.71 38.2903 152.71 31.9355 152.71 25.5806C152.71 25.4839 152.71 25.4194 152.71 25.3226C152.774 25.3548 152.742 25.4516 152.742 25.4839C152.742 31.8065 152.742 38.129 152.742 44.4516C152.742 44.5484 152.774 44.6129 152.71 44.6452Z" fill="#001F39"/>
<path d="M24.9353 29.3871C24.9353 28.0968 24.9353 26.7742 24.9353 25.4516C24.9353 25.2903 24.8708 25.2258 24.7095 25.2258C20.1288 25.2258 15.5482 25.2258 10.9675 25.2258C10.903 25.2258 10.8385 25.2258 10.7417 25.2258C10.8708 25.1613 10.9675 25.1935 11.0966 25.1935C15.645 25.1935 20.1934 25.1935 24.774 25.1935C24.9353 25.1935 24.9675 25.2258 24.9675 25.3871C24.9675 26.6774 24.9675 27.9355 24.9675 29.2258C24.9675 29.2903 24.9998 29.3548 24.9353 29.3871Z" fill="#001F39"/>
<path d="M179.484 29.3871C179.484 28.0645 179.484 26.7742 179.484 25.4516C179.484 25.2903 179.419 25.2258 179.258 25.2258C174.742 25.2258 170.194 25.2258 165.677 25.2258C165.613 25.2258 165.516 25.2581 165.452 25.1935C165.548 25.1935 165.613 25.1935 165.71 25.1935C170.226 25.1935 174.774 25.1935 179.29 25.1935C179.452 25.1935 179.516 25.2258 179.516 25.4194C179.516 26.6774 179.516 27.9355 179.516 29.1935C179.516 29.2581 179.548 29.3226 179.484 29.3871Z" fill="#001F39"/>
<path d="M49.0322 25.3548C43.2258 25.3548 37.4516 25.3548 31.6451 25.3548C31.6129 25.3548 31.6129 25.3548 31.5806 25.3548C31.6129 25.2903 31.7097 25.3226 31.7419 25.3226C37.3871 25.3226 43 25.3226 48.6451 25.3226C48.7742 25.3226 48.9032 25.2903 49.0322 25.3548Z" fill="#001F39"/>
<path d="M105.065 25.2258C105 25.2581 104.903 25.2581 104.839 25.2581C99.1934 25.2581 93.5482 25.2581 87.903 25.2581C87.8385 25.2581 87.7417 25.2581 87.6772 25.2581C87.7095 25.1935 87.774 25.2258 87.8385 25.2258C93.5159 25.2258 99.1934 25.2258 104.871 25.2258C104.903 25.1935 105 25.1935 105.065 25.2258Z" fill="#001F39"/>
<path d="M65.5806 44.6452C68.6129 44.6452 71.6774 44.6452 74.7097 44.6452C77.4839 44.6452 80.2258 44.6452 83 44.6452C82.9355 44.7097 82.871 44.6774 82.8064 44.6774C77.1613 44.6774 71.5161 44.6774 65.871 44.6774C65.7742 44.6774 65.6774 44.7097 65.5806 44.6452Z" fill="#001F39"/>
<path d="M131 25.3548C130.903 25.3548 130.806 25.3548 130.742 25.3548C125.774 25.3548 120.774 25.3548 115.806 25.3548C115.839 25.2903 115.903 25.3226 115.968 25.3226C120.871 25.3226 125.806 25.3226 130.71 25.3226C130.774 25.3226 130.903 25.2903 131 25.3548Z" fill="#001F39"/>
<path d="M181.581 33.9355C179 33.9355 176.452 33.9355 173.871 33.9355C173.71 33.9355 173.71 34.0323 173.71 34.129C173.71 36.2258 173.71 38.3226 173.71 40.4194C173.71 40.4839 173.742 40.5806 173.677 40.6129C173.677 38.4516 173.677 36.2581 173.677 34.0968C173.677 33.9355 173.71 33.871 173.903 33.871C176.387 33.871 178.903 33.871 181.387 33.871C181.452 33.9032 181.548 33.8387 181.581 33.9355Z" fill="#001F39"/>
<path d="M59.5159 25.3548C59.5159 25.5806 59.5159 25.8065 59.5159 26.0323C59.5159 30.1935 59.5159 34.3548 59.5159 38.5161C59.5159 38.6129 59.5159 38.6774 59.5159 38.7742C59.4836 38.6129 59.4836 38.4194 59.4836 38.2581C59.4836 34 59.4836 29.7742 59.4836 25.5161C59.4836 25.4516 59.4514 25.3871 59.5159 25.3548Z" fill="#001F39"/>
<path d="M67.3546 25.3548C64.8062 25.3548 62.2901 25.3548 59.774 25.3548C59.6772 25.3548 59.6127 25.3548 59.5159 25.3548C59.5482 25.2903 59.6449 25.3226 59.6772 25.3226C62.1933 25.3226 64.6772 25.3226 67.1933 25.3226C67.2578 25.3226 67.3224 25.2903 67.3546 25.3548Z" fill="#001F39"/>
<path d="M152.71 25.3548C150.355 25.3548 148.032 25.3548 145.677 25.3548C145.387 25.3548 145.129 25.3548 144.839 25.3548C144.871 25.2903 144.936 25.3226 145 25.3226C147.516 25.3226 150 25.3226 152.516 25.3226C152.613 25.3226 152.677 25.2903 152.71 25.3548Z" fill="#001F39"/>
<path d="M144.871 44.6452C147.484 44.6452 150.097 44.6452 152.71 44.6452C152.645 44.7097 152.581 44.6774 152.516 44.6774C150.032 44.6774 147.548 44.6774 145.065 44.6774C145 44.6774 144.935 44.7097 144.871 44.6452Z" fill="#001F39"/>
<path d="M83 25.3548C80.4193 25.3548 77.8387 25.3548 75.2581 25.3548C75.2903 25.2903 75.3548 25.3226 75.4193 25.3226C77.9032 25.3226 80.3548 25.3226 82.8387 25.3226C82.9032 25.3226 82.9355 25.2903 83 25.3548Z" fill="#001F39"/>
<path d="M26.9354 33.9355C24.3547 33.9355 21.7741 33.9355 19.1934 33.9355C19.2257 33.871 19.2902 33.9032 19.3547 33.9032C21.8386 33.9032 24.3225 33.9032 26.7741 33.9032C26.8386 33.9032 26.9031 33.871 26.9354 33.9355Z" fill="#001F39"/>
<path d="M31.5806 44.6452C34.1613 44.6452 36.7419 44.6452 39.3226 44.6452C39.258 44.7097 39.1935 44.6774 39.1613 44.6774C36.7097 44.6774 34.258 44.6774 31.7742 44.6774C31.7097 44.6774 31.6451 44.7097 31.5806 44.6452Z" fill="#001F39"/>
</g>
</g>
<defs>
<clipPath id="clip0_421_4047">
<rect width="182" height="65" fill="white"/>
</clipPath>
</defs>
</svg>
