<svg width="203" height="80" viewBox="0 0 203 80" fill="none" xmlns="http://www.w3.org/2000/svg">
<g clip-path="url(#clip0_1533_2926)">
<path fill-rule="evenodd" clip-rule="evenodd" d="M39.6586 0.0758246L31.3932 0.0379105C32.379 12.9289 26.3885 15.5071 15.8861 7.27962L11.3743 12.1706C18.1989 22.5972 15.4312 27.9052 1.44064 25.5545L0.606514 32.872C12.8909 34.3886 11.7534 47.8862 0.189453 48.7583L3.33637 56.4171C12.4738 51.4882 21.0046 59.7156 11.4122 67.7535L17.289 73.5924C24.4169 64.9099 33.2132 67.9052 32.0378 79.7725L39.3553 79.8104L39.507 66.3507C5.87666 58.9573 8.79609 19.1848 39.2416 15.6588L39.6586 0.0758246Z" fill="white"/>
<path fill-rule="evenodd" clip-rule="evenodd" d="M42.2368 26.6919C50.123 26.7299 56.6064 33.1754 56.6823 41.0616C56.7581 48.9479 50.4643 55.3175 42.578 55.2796C34.6918 55.2417 28.2083 48.7962 28.1325 40.9099C28.0567 32.9858 34.3884 26.654 42.2368 26.6919Z" fill="white"/>
<path fill-rule="evenodd" clip-rule="evenodd" d="M57.2506 5.45971C61.08 5.45971 64.2269 8.60663 64.2648 12.4739C64.3027 16.3033 61.2316 19.4123 57.4023 19.4123C53.5729 19.4123 50.426 16.2654 50.388 12.3981C50.3501 8.56871 53.4212 5.45971 57.2506 5.45971Z" fill="white"/>
<path fill-rule="evenodd" clip-rule="evenodd" d="M62.0285 23.8104C66.0095 28.436 68.474 34.4644 68.5498 41.0616C68.7014 55.4313 57.5545 66.9953 43.6777 66.9194C43.7156 69.3839 43.7536 71.8483 43.7536 74.3128C61.6114 74.3886 75.9431 59.5261 75.7157 41.0995C75.6398 34.1611 73.5166 27.6777 69.9147 22.3317L62.0285 23.8104Z" fill="white"/>
<path d="M105.972 70.4076L108.322 70.0664C108.436 71.0142 108.853 71.7346 109.46 72.2654C110.066 72.7962 110.901 73.0237 112 73.0237C113.062 73.0237 113.934 72.7962 114.427 72.3412C114.957 71.8863 115.223 71.3934 115.223 70.7867C115.223 70.2559 114.995 69.8389 114.502 69.4976C114.199 69.3081 113.327 69.0047 112.076 68.7014C110.332 68.2464 109.119 67.8673 108.436 67.5261C107.754 67.2228 107.223 66.7678 106.882 66.1611C106.54 65.5924 106.351 64.9479 106.351 64.2654C106.351 63.6209 106.502 63.0521 106.806 62.5213C107.071 61.9905 107.488 61.5355 108.019 61.1943C108.36 60.9289 108.891 60.6635 109.536 60.5119C110.18 60.3223 110.863 60.2464 111.621 60.2464C112.758 60.2464 113.706 60.3981 114.54 60.7393C115.375 61.0427 116.019 61.4976 116.36 62.0663C116.777 62.6351 117.043 63.3554 117.194 64.2654L114.844 64.5687C114.73 63.8483 114.427 63.2796 113.934 62.8626C113.403 62.4455 112.683 62.2559 111.773 62.2559C110.711 62.2559 109.877 62.4455 109.422 62.8246C108.929 63.1659 108.702 63.6209 108.702 64.1137C108.702 64.4171 108.777 64.7204 108.967 64.9479C109.157 65.1754 109.498 65.4408 109.877 65.5924C110.104 65.6682 110.825 65.8578 112 66.1991C113.668 66.654 114.882 67.0332 115.564 67.3365C116.247 67.6019 116.777 68.0569 117.119 68.5877C117.536 69.1564 117.687 69.8389 117.687 70.6351C117.687 71.4313 117.46 72.1896 117.005 72.872C116.512 73.5924 115.867 74.1232 114.957 74.5024C114.085 74.9194 113.062 75.109 111.962 75.109C110.142 75.109 108.739 74.6919 107.754 73.9336C106.882 73.0237 106.275 71.8863 105.972 70.4076Z" fill="white"/>
<path d="M130.237 70.0284L132.702 70.3318C132.284 71.7725 131.564 72.872 130.54 73.7062C129.517 74.5024 128.152 74.9194 126.521 74.9194C124.436 74.9194 122.806 74.2749 121.593 72.9858C120.379 71.6967 119.811 69.9147 119.811 67.6398C119.811 65.2891 120.417 63.3934 121.63 62.1422C122.882 60.8152 124.436 60.1706 126.37 60.1706C128.266 60.1706 129.82 60.8152 130.995 62.1043C132.209 63.3934 132.777 65.1754 132.777 67.5261C132.777 67.6398 132.777 67.8673 132.777 68.1706H122.275C122.351 69.7251 122.806 70.9384 123.602 71.7346C124.398 72.5687 125.346 72.9858 126.559 72.9858C127.431 72.9858 128.19 72.7583 128.796 72.3033C129.403 71.8104 129.896 71.09 130.237 70.0284ZM122.389 66.1611H130.275C130.161 64.9479 129.858 64.0758 129.365 63.4692C128.607 62.5592 127.621 62.0663 126.408 62.0663C125.346 62.0663 124.36 62.4076 123.64 63.2038C122.844 63.9621 122.465 64.9479 122.389 66.1611Z" fill="white"/>
<path d="M135.697 74.5782V60.4739H137.858V62.6351C138.427 61.6493 138.882 60.9668 139.375 60.6256C139.868 60.3223 140.323 60.1327 140.892 60.1327C141.688 60.1327 142.522 60.3602 143.356 60.891L142.522 63.128C141.915 62.7867 141.347 62.5972 140.778 62.5972C140.247 62.5972 139.792 62.7488 139.375 63.09C138.958 63.3934 138.655 63.8483 138.503 64.4171C138.238 65.2512 138.086 66.1991 138.086 67.2227V74.6161L135.697 74.5782Z" fill="white"/>
<path d="M148.701 74.5782L143.355 60.4739H145.858L148.891 68.9668C149.194 69.8768 149.536 70.8626 149.801 71.8104C149.991 71.0521 150.332 70.1801 150.673 69.1185L153.782 60.4739H156.246L150.9 74.5782H148.701Z" fill="white"/>
<path d="M158.445 57.8578V55.09H160.834V57.8578H158.445ZM158.445 74.5782V60.4739H160.834V74.5782H158.445Z" fill="white"/>
<path d="M173.649 69.4218L176 69.7251C175.773 71.3554 175.09 72.6066 174.029 73.5166C172.967 74.4265 171.678 74.8815 170.123 74.8815C168.19 74.8815 166.635 74.237 165.46 72.9858C164.285 71.6967 163.716 69.9147 163.716 67.564C163.716 66.0474 163.943 64.7204 164.474 63.5829C165.005 62.4455 165.763 61.5735 166.787 61.0427C167.811 60.4739 168.948 60.2085 170.161 60.2085C171.678 60.2085 172.967 60.6256 173.915 61.3839C174.863 62.1422 175.507 63.2796 175.811 64.7204L173.498 65.0616C173.27 64.1137 172.891 63.3934 172.285 62.9005C171.716 62.4076 171.033 62.1801 170.237 62.1801C169.024 62.1801 168.038 62.6351 167.28 63.5071C166.522 64.3791 166.142 65.7441 166.142 67.6398C166.142 69.5735 166.484 70.9005 167.204 71.7725C167.924 72.6066 168.872 73.0616 170.048 73.0616C170.958 73.0616 171.754 72.7962 172.398 72.1896C173.081 71.5071 173.498 70.6351 173.649 69.4218Z" fill="white"/>
<path d="M187.754 70.0284L190.218 70.3318C189.801 71.7725 189.081 72.872 188.057 73.7062C187.033 74.5403 185.668 74.9194 184.038 74.9194C181.953 74.9194 180.322 74.2749 179.109 72.9858C177.896 71.6967 177.327 69.9147 177.327 67.6398C177.327 65.2891 177.934 63.3934 179.147 62.1422C180.398 60.8152 181.953 60.1706 183.886 60.1706C185.782 60.1706 187.337 60.8152 188.512 62.1043C189.725 63.3934 190.294 65.1754 190.294 67.5261C190.294 67.6398 190.294 67.8673 190.294 68.1706H179.792C179.867 69.7251 180.322 70.9384 181.119 71.7346C181.915 72.5687 182.863 72.9858 184.076 72.9858C184.948 72.9858 185.706 72.7583 186.313 72.3033C186.882 71.8104 187.412 71.09 187.754 70.0284ZM179.905 66.1611H187.792C187.678 64.9479 187.375 64.0758 186.882 63.4692C186.123 62.5592 185.138 62.0663 183.924 62.0663C182.787 62.0663 181.877 62.4076 181.157 63.2038C180.36 63.9621 179.981 64.9479 179.905 66.1611Z" fill="white"/>
<path d="M120.417 4.81516H132.322V44.3981H124.625V17.6303C124.625 16.872 124.625 15.7725 124.663 14.4076C124.663 13.0047 124.701 11.9431 124.701 11.1848L117.156 44.3981H109.118L101.687 11.1848C101.687 11.9431 101.687 13.0047 101.725 14.4076C101.725 15.8104 101.763 16.872 101.763 17.6303V44.3981H94.0283V4.81516H106.047L113.251 35.9431L120.417 4.81516Z" fill="white"/>
<path d="M168.72 4.81516V11.8294H156.891V44.3981H148.55V11.8294H136.645V4.81516H168.72Z" fill="white"/>
<path d="M202.313 4.81516V11.8294H190.484V44.3981H182.143V11.8294H170.237V4.81516H202.313Z" fill="white"/>
</g>
<defs>
<clipPath id="clip0_1533_2926">
<rect width="202.464" height="80" fill="white"/>
</clipPath>
</defs>
</svg>
