<svg width="146" height="65" viewBox="0 0 146 65" fill="none" xmlns="http://www.w3.org/2000/svg">
<g clip-path="url(#clip0_421_4080)">
<mask id="mask0_421_4080" style="mask-type:alpha" maskUnits="userSpaceOnUse" x="0" y="0" width="146" height="65">
<path d="M146 0H0V65H146V0Z" fill="#C4C4C4"/>
</mask>
<g mask="url(#mask0_421_4080)">
<path fill-rule="evenodd" clip-rule="evenodd" d="M79.814 34.2055C79.814 34.2055 78.4003 33.3304 77.5252 32.9931C77.5252 32.9931 74.8192 31.7389 74.2824 31.1422C74.2824 31.1422 73.2286 30.1483 73.8453 28.9939C73.8453 28.9939 74.1037 28.2385 75.2182 28.2385C75.2182 28.2385 76.6682 28.3183 76.6682 29.5108V31.1939H81.8689L81.8598 28.7155C81.8598 28.7155 82.2589 24.6584 75.7342 24.4797C75.7342 24.4797 70.6033 24.1424 69.1315 26.9064C69.1315 26.9064 68.5539 27.5221 68.5539 29.6704V31.222C68.5539 31.222 68.495 33.0121 69.4099 34.1647C69.4099 34.1647 69.9268 34.9219 71.2 35.7562C71.2 35.7562 73.7854 37.1482 75.337 37.9453C75.337 37.9453 76.9031 38.8394 76.6963 40.2613C76.6963 40.2613 76.5703 41.7213 75.0568 41.6624C75.0568 41.6624 73.6739 41.5989 73.6739 40.1679V38.4866H68.1331V40.9297C68.1331 40.9297 67.9772 45.5998 75.0985 45.5998C75.0985 45.5998 81.9007 45.7377 82.219 40.8054V38.8176C82.219 38.8176 82.4574 35.7961 79.814 34.2055Z" fill="#131514"/>
<path fill-rule="evenodd" clip-rule="evenodd" d="M53.1931 25.061L51.4519 35.972H51.0448L49.3816 25.1589H40.6951L40.2607 44.9161H45.4034L45.465 30.0295H45.8695L48.5954 44.9143H54.0056L56.698 30.035H57.0562L57.1804 44.9161H62.3502L61.7944 25.061H53.1931Z" fill="#131514"/>
<path fill-rule="evenodd" clip-rule="evenodd" d="M22.5802 25.1426L19.1587 44.8952H24.6949L26.7217 29.5797H27.1769L29.2028 44.8952H34.7381L31.3175 25.1426H22.5802Z" fill="#131514"/>
<path fill-rule="evenodd" clip-rule="evenodd" d="M138.747 33.9334V36.8471H140.167V39.9748C140.167 41.5028 138.861 41.5318 138.861 41.5318C137.272 41.5318 137.332 40.079 137.332 40.079V29.2605C137.332 28.1451 138.742 28.0862 138.742 28.0862C140.096 28.0862 140.106 29.4156 140.106 29.4156V31.0606H145.317C145.487 27.8504 144.847 27.0723 144.847 27.0723C143.554 24.1687 138.664 24.3274 138.664 24.3274C131.146 24.3274 131.98 30.0948 131.98 30.0948V40.5551C132.141 45.9644 139.547 45.4158 139.673 45.4085C142.969 45.044 143.963 43.9984 143.963 43.9984C144.879 43.3182 145.116 42.376 145.116 42.376C145.377 41.8274 145.442 40.079 145.442 40.079V33.9334H138.747Z" fill="#131514"/>
<path fill-rule="evenodd" clip-rule="evenodd" d="M121.47 37.1482H121.243L115.952 25.0655H109.625V44.9197H114.775L114.467 32.8389H114.696L120.176 44.9197H126.314V25.0646H121.099L121.47 37.1482Z" fill="#131514"/>
<path fill-rule="evenodd" clip-rule="evenodd" d="M97.0503 39.9729C97.0503 39.9729 97.1256 41.6025 95.6157 41.6025C95.6157 41.6025 94.0251 41.6869 94.0251 40.0138L94.0088 25.0782H88.3601V39.895C88.3601 39.895 87.7798 45.5028 95.6937 45.5028C95.6937 45.5028 102.572 45.5835 102.572 40.1516V25.0782H97.0503V39.9729Z" fill="#131514"/>
<path fill-rule="evenodd" clip-rule="evenodd" d="M11.8098 34.2046C11.8098 34.2046 10.3978 33.3304 9.52277 32.9931C9.52277 32.9931 6.8186 31.7398 6.28175 31.1422C6.28175 31.1422 5.22711 30.1465 5.84466 28.9948C5.84466 28.9948 6.1022 28.2394 7.21579 28.2394C7.21579 28.2394 8.66763 28.3183 8.66763 29.5108V31.1939H13.8692L13.8592 28.7146C13.8592 28.7146 14.2564 24.6575 7.73359 24.4797C7.73359 24.4797 7.24299 24.448 6.52116 24.4842C6.52116 24.4842 2.57009 24.6964 1.15815 26.8638C1.14999 26.8792 1.1382 26.8919 1.13094 26.9064C1.13094 26.9064 0.553295 27.5221 0.553295 29.6704V31.222C0.553295 31.222 0.493444 33.0112 1.40934 34.1647C1.40934 34.1647 1.92624 34.9219 3.19943 35.7562C3.19943 35.7562 5.78299 37.1482 7.33458 37.9435C7.33458 37.9435 8.9025 38.8376 8.69574 40.2613C8.69574 40.2613 8.56878 41.7213 7.05709 41.6624C7.05709 41.6624 5.67327 41.5989 5.67327 40.1679V38.4848H0.131618V40.9297C0.131618 40.9297 -0.0234504 45.5998 7.09609 45.5998C7.09609 45.5998 13.8973 45.7377 14.2174 40.8054V38.8176C14.2174 38.8176 14.455 35.7961 11.8098 34.2046Z" fill="#131514"/>
</g>
</g>
<defs>
<clipPath id="clip0_421_4080">
<rect width="146" height="65" fill="white"/>
</clipPath>
</defs>
</svg>
